<svg xmlns="http://www.w3.org/2000/svg" xmlns:xlink="http://www.w3.org/1999/xlink" version="1.1" width="100" height="auto" viewBox="0 0 576 576">
<defs>
<path id="font_0_47" d="M.07598877 0V.72698977H.272995V.16899109H.59799197V0H.07598877Z"/>
<path id="font_0_56" d="M.06298828 .72698977H.25698854V.30299378C.25698854 .24398804 .2639923 .20599365 .2789917 .18798828 .2939911 .17098999 .32398988 .1619873 .36999513 .1619873H.4059906C.45098878 .1619873 .48098756 .17098999 .49598695 .18798828 .5109863 .20498657 .5179901 .24398804 .5179901 .30299378V.72698977H.71199038V.28799439C.71199038 .22299195 .70799258 .1749878 .69999697 .14399719 .69200137 .11399841 .67900088 .08699036 .6589966 .06498718 .6369934 .037994386 .60798647 .019989014 .57398989 .0079956059 .5399933-.0030059815 .49398805-.009002686 .43598939-.009002686H.33999635C.28199769-.009002686 .23599243-.0030059815 .20199585 .0079956059 .16799927 .019989014 .13999939 .037994386 .116989139 .06498718 .09799194 .08799744 .083999637 .114990238 .07598877 .1459961 .066986087 .1769867 .06298828 .22399903 .06298828 .28799439V.72698977Z"/>
<path id="font_0_59" d="M.022994996 0 .21499634 .3769989 .049987794 .72698977H.2689972L.37199403 .47499085 .47599793 .72698977H.69599917L.5249939 .3769989 .71199038 0H.4889984L.36898805 .2769928 .24398804 0H.022994996Z"/>
<path id="font_1_3" d="M0 0Z"/>
<path id="font_1_48" d="M.08799744 0V.72698977H.21998596L.46899415 .07899475 .71598818 .72698977H.848999V0H.7689972V.6589966L.5179901 0H.4189911L.16799927 .6589966V0H.08799744Z"/>
<path id="font_1_56" d="M.08099365 .72698977H.1619873V.25C.1619873 .20298767 .16499329 .16999817 .16999817 .1519928 .1749878 .1329956 .18299866 .117996219 .19599915 .10699463 .20899964 .09498596 .22399903 .08699036 .24198914 .08198547 .26098634 .07699585 .2919922 .07499695 .33599855 .07499695H.4119873C.45700074 .07499695 .48799134 .07699585 .5059967 .08198547 .5249939 .08699036 .5399933 .09498596 .5529938 .10699463 .5649872 .117996219 .57398989 .1329956 .57899478 .15098572 .58399966 .16999817 .58599856 .20298767 .58599856 .25V.72698977H.6669922V.23999024C.6669922 .14698792 .6489868 .08299255 .6119995 .04598999 .57598879 .008987427 .5109863-.009002686 .41799928-.009002686H.32998658C.23699951-.009002686 .17298889 .008987427 .13598633 .04598999 .09899902 .08299255 .08099365 .14698792 .08099365 .23999024V.72698977Z"/>
<path id="font_1_49" d="M.08799744 0V.72698977H.21199036L.60598757 .07798767V.72698977H.6859894V0H.56199648L.16799927 .6499939V0H.08799744Z"/>
<path id="font_1_39" d="M.08799744 0V.72698977H.43899537C.5299988 .72698977 .59399417 .70899966 .6309967 .6729889 .66799929 .6369934 .6859894 .57398989 .6859894 .48399354V.24398804C.6859894 .1539917 .66799929 .09098816 .6309967 .054992677 .59399417 .017990113 .5299988 0 .43899537 0H.08799744M.16799927 .07199097H.42599488C.49598695 .07199097 .54299929 .083999637 .56599429 .10798645 .58999636 .1309967 .60198977 .1769867 .60198977 .24299622V.47799684C.60198977 .548996 .58999636 .59599307 .5669861 .61898806 .54299929 .6429901 .49598695 .6549988 .42599488 .6549988H.16799927V.07199097Z"/>
<path id="font_1_44" d="M.08799744 0V.72698977H.16899109V0H.08799744Z"/>
</defs>
<g id="layer_1" data-name="Layer 1">
<path transform="matrix(1,0,0,-1,0,576)" d="M0 576H576V0H0Z" fill-rule="evenodd"/>
<path transform="matrix(1,0,0,-1,0,576)" d="M177.8987 338.538V253.0851H223.7488L223.7428 257.7512 182.5685 257.7549 182.6535 336.1966 251.6635 386.0359C254.4579 384.3153 257.1443 382.0901 259.8871 380.1402 266.5361 375.414 278.2446 366.4009 284.1401 362.5739 283.4065 361.6963 282.3497 361.0534 281.3567 360.3643 280.0715 360.8541 278.6528 362.1246 277.4316 362.9818L251.6635 381.6133C250.3168 381.1133 220.3024 358.9818 218.9693 358.0336L186.3573 334.476 186.4159 260.964 223.6876 261.0882 223.6487 266.4408 191.9631 266.4493 191.9619 331.0713 244.146 368.8058C245.5929 369.8481 246.6924 370.6257 247.9533 371.5642 249.0576 372.3871 250.3987 373.6403 251.6635 374.1094 252.6664 373.5697 253.8323 372.5719 254.7814 371.9069L275.9306 356.5083C275.2795 355.7333 273.774 354.8735 272.8667 354.2202 271.275 355.1219 269.041 356.8632 267.4879 358.0359L251.6635 369.449 195.7388 329.1146V270.2463C199.8981 270.1174 221.0692 269.7253 223.6915 270.4037L223.6901 276.8372 202.7599 276.8502 202.7554 326.5707C203.3663 327.613 207.6712 330.4361 208.8346 331.2743 211.0487 332.8699 212.9114 334.1931 214.9798 335.7547L239.4343 353.5041C241.2757 354.8254 250.5039 361.7674 251.6635 362.2088L267.6039 350.6491C267.1447 349.6884 260.2936 345.0172 259.4591 344.416 258.0871 343.4281 251.8761 339.2263 251.202 338.1409L251.2191 253.0851H325.2464L325.2637 338.1409C324.5927 339.2249 318.378 343.4284 317.0072 344.4165L309.1093 350.2732 324.8025 362.2088C326.0917 361.7181 329.6837 358.8129 331.0605 357.8477 334.7668 355.2497 373.4683 327.4668 373.7123 326.5707L373.7089 276.8564 352.7756 276.6963 352.7753 270.4042C355.4186 269.718 376.528 270.1244 380.7289 270.2446L380.7258 329.118 373.6647 334.1758C358.5229 344.9418 343.4125 356.4768 328.3603 367.0308 327.2153 367.8338 326.1532 368.7951 324.8025 369.449 320.9312 367.0064 315.0224 362.298 310.8067 359.3387 308.3074 357.5843 269.248 329.4618 269.0306 328.7599L268.8542 270.22 307.3683 270.2205C307.3683 289.7413 307.4369 309.1893 307.4363 328.7599 307.2478 329.3694 296.9538 336.7015 295.0183 338.0454L293.4434 339.3916C294.3111 340.2247 295.3029 340.9594 296.3597 341.5649L308.0409 333.2565C311.574 330.5906 311.2135 332.1383 311.2106 326.5707 311.2081 306.5516 311.2356 286.5957 311.2356 266.5933 295.9432 266.5933 280.6469 266.5956 265.3526 266.5956L265.4028 331.1351 324.8025 374.11C326.067 373.6397 352.0908 354.5141 354.7925 352.5114L380.8851 333.5845C382.142 332.7026 383.2957 331.7326 384.501 331.0699V266.451L352.783 266.3348 352.8062 260.9717 390.1076 260.9793 390.109 334.4771C388.8142 335.2096 387.2894 336.4305 385.9376 337.3929 384.5069 338.4111 383.491 339.2303 381.9892 340.3125L328.8742 378.8053C327.5393 379.7663 326.1472 381.1147 324.8025 381.6133 323.6477 380.9911 321.6455 379.4105 320.5823 378.6335 316.2478 375.4647 259.9197 335.0818 259.6482 334.0755L259.7386 260.9657 316.7807 260.8166C316.7807 285.2501 316.8162 309.6235 316.8162 334.0755 316.6665 334.6299 303.8513 344.0095 301.722 345.3279 302.5298 346.2259 303.5769 347.0919 304.799 347.5114L320.6075 335.9517C320.6089 309.9008 320.6083 283.7529 320.6083 257.7569L255.8574 257.8961 255.8954 335.9517C256.7968 336.9195 258.9463 338.3124 260.0668 339.116 261.7084 340.2941 262.8969 341.1315 264.4044 342.2795 267.368 344.5364 270.1585 346.362 273.1096 348.5818L307.5304 373.5598C310.542 375.6841 313.2167 377.6984 316.2121 379.8805L324.8025 386.0359C326.2504 385.3553 327.9348 383.9406 329.2968 382.9723L393.893 336.1966 393.895 257.7569 352.7169 257.6687 352.7218 253.0851H398.5673V338.538L389.3111 345.1428C386.2261 347.3056 383.3263 349.5677 380.0755 351.8495 373.8716 356.2041 368.0048 360.7174 361.7929 365.1378L325.0664 391.926H324.7549L288.2333 365.4323 251.7109 391.926H251.3996L196.2062 351.7203C193.0221 349.4891 190.082 347.1925 186.971 345.0129 185.4828 343.9709 183.837 342.7775 182.4222 341.7412 180.9831 340.687 179.2905 339.2841 177.8987 338.538ZM276.0423 327.0002C276.0423 310.8095 275.809 292.8195 276.0474 276.8547L300.4203 276.8516 300.4243 327.0019C297.6072 328.506 290.3094 334.7402 288.2333 335.6232 286.2434 334.777 278.8546 328.5136 276.0423 327.0002" fill="#ffffff" fill-rule="evenodd"/>
<use data-text="L" xlink:href="#font_0_47" transform="matrix(26.378539,0,0,-25.43,176.2364,353.88453)" fill="#ffffff"/>
<use data-text="U" xlink:href="#font_0_56" transform="matrix(26.378539,0,0,-25.43,202.05004,353.88453)" fill="#ffffff"/>
<use data-text="X" xlink:href="#font_0_59" transform="matrix(26.378539,0,0,-25.43,232.16306,353.88453)" fill="#ffffff"/>
<use data-text=" " xlink:href="#font_1_3" transform="matrix(26.378539,0,0,-25.43,253.65726,353.88453)" fill="#ffffff"/>
<use data-text="M" xlink:href="#font_1_48" transform="matrix(26.378539,0,0,-25.43,271.90284,353.88453)" fill="#ffffff"/>
<use data-text="U" xlink:href="#font_1_56" transform="matrix(26.378539,0,0,-25.43,305.68925,353.88453)" fill="#ffffff"/>
<use data-text="N" xlink:href="#font_1_49" transform="matrix(26.378539,0,0,-25.43,334.75398,353.88453)" fill="#ffffff"/>
<use data-text="D" xlink:href="#font_1_39" transform="matrix(26.378539,0,0,-25.43,364.52677,353.88453)" fill="#ffffff"/>
<use data-text="I" xlink:href="#font_1_44" transform="matrix(26.378539,0,0,-25.43,393.6444,353.88453)" fill="#ffffff"/>
<path transform="matrix(1,0,0,-1,0,576)" d="M177.4324 213.4264H398.111V207.462H177.4324Z" fill="#ffffff" fill-rule="evenodd"/>
<path transform="matrix(1,0,0,-1,0,576)" d="M177.4324 202.5955H398.111V198.1227H177.4324Z" fill="#ffffff" fill-rule="evenodd"/>
</g>
</svg>
