<svg width="100" height="auto" viewBox="0 0 252 252" fill="none" xmlns="http://www.w3.org/2000/svg">
<path fill-rule="evenodd" clip-rule="evenodd" d="M11.8984 80.4612V165.914H57.7485L57.7425 161.248L16.5682 161.244L16.6532 82.8026L85.6632 32.9633C88.4576 34.6839 91.144 36.9091 93.8868 38.859C100.536 43.5852 112.244 52.5982 118.14 56.4252C117.406 57.3028 116.349 57.9458 115.356 58.6349C114.071 58.1451 112.653 56.8745 111.431 56.0173L85.6632 37.3858C84.3165 37.8858 54.3021 60.0174 52.969 60.9656L20.357 84.5231L20.4156 158.035L57.6873 157.911L57.6484 152.558L25.9628 152.55L25.9616 87.9279L78.1457 50.1934C79.5926 49.1511 80.6921 48.3735 81.953 47.435C83.0573 46.6121 84.3984 45.3589 85.6632 44.8898C86.6661 45.4295 87.832 46.4273 88.7811 47.0923L109.93 62.4909C109.279 63.2659 107.774 64.1256 106.866 64.7789C105.275 63.8772 103.041 62.136 101.488 60.9633L85.6632 49.5502L29.7385 89.8846V148.753C33.8978 148.882 55.0689 149.274 57.6912 148.595L57.6898 142.162L36.7596 142.149L36.7551 92.4285C37.366 91.3862 41.6709 88.5631 42.8343 87.7249C45.0484 86.1293 46.9111 84.8061 48.9795 83.2445L73.434 65.4951C75.2754 64.1738 84.5036 57.2318 85.6632 56.7904L101.604 68.3501C101.144 69.3108 94.2933 73.982 93.4588 74.5832C92.0868 75.5711 85.8758 79.7729 85.2017 80.8583L85.2188 165.914H159.246L159.263 80.8583C158.592 79.7743 152.378 75.5708 151.007 74.5827L143.109 68.726L158.802 56.7904C160.091 57.2811 163.683 60.1863 165.06 61.1515C168.767 63.7495 207.468 91.5324 207.712 92.4285L207.709 142.143L186.775 142.303L186.775 148.595C189.418 149.281 210.528 148.875 214.729 148.755L214.726 89.8811L207.664 84.8233C192.523 74.0573 177.412 62.5224 162.36 51.9684C161.215 51.1654 160.153 50.2041 158.802 49.5502C154.931 51.9928 149.022 56.7011 144.806 59.6604C142.307 61.4148 103.248 89.5374 103.03 90.2393L102.854 148.779L141.368 148.779C141.368 129.258 141.437 109.81 141.436 90.2393C141.248 89.6298 130.954 82.2977 129.018 80.9538L127.443 79.6076C128.311 78.7745 129.303 78.0397 130.359 77.4342L142.041 85.7427C145.574 88.4086 145.213 86.8609 145.21 92.4285C145.208 112.448 145.235 132.403 145.235 152.406C129.943 152.406 114.647 152.404 99.3523 152.404L99.4025 87.8641L158.802 44.8892C160.067 45.3595 186.091 64.485 188.792 66.4877L214.885 85.4147C216.142 86.2966 217.295 87.2666 218.501 87.9293V152.548L186.783 152.664L186.806 158.027L224.107 158.02L224.109 84.522C222.814 83.7895 221.289 82.5686 219.937 81.6062C218.507 80.588 217.491 79.7689 215.989 78.6867L162.874 40.1939C161.539 39.2329 160.147 37.8844 158.802 37.3858C157.647 38.008 155.645 39.5886 154.582 40.3656C150.248 43.5344 93.9194 83.9174 93.6479 84.9237L93.7383 158.033L150.78 158.183C150.78 133.749 150.816 109.376 150.816 84.9237C150.666 84.3693 137.851 74.9896 135.722 73.6712C136.53 72.7732 137.577 71.9072 138.799 71.4877L154.607 83.0475C154.609 109.098 154.608 135.246 154.608 161.242L89.8571 161.103L89.8951 83.0475C90.7965 82.0797 92.946 80.6868 94.0665 79.8832C95.7081 78.7051 96.8966 77.8677 98.4041 76.7197C101.368 74.4628 104.158 72.6372 107.109 70.4174L141.53 45.4393C144.542 43.315 147.216 41.3008 150.212 39.1187L158.802 32.9633C160.25 33.6439 161.935 35.0586 163.297 36.0269L227.893 82.8026L227.895 161.242L186.717 161.33L186.722 165.914H232.567V80.4612L223.311 73.8564C220.226 71.6936 217.326 69.4315 214.075 67.1497C207.871 62.7951 202.005 58.2818 195.793 53.8614L159.066 27.0732H158.755L122.233 53.5668L85.7106 27.0732H85.3993L30.2059 67.2789C27.0218 69.5101 24.0817 71.8067 20.9707 73.9863C19.4825 75.0283 17.8367 76.2216 16.4219 77.2579C14.9828 78.3121 13.2902 79.7151 11.8984 80.4612ZM110.042 91.9989C110.042 108.19 109.809 126.18 110.047 142.144L134.42 142.148L134.424 91.9973C131.607 90.4932 124.309 84.259 122.233 83.376C120.243 84.2222 112.854 90.4855 110.042 91.9989Z" fill="white"/>
<path d="M12.2402 196.885V178.397H17.437V192.587H26.0099V196.885H12.2402Z" fill="white"/>
<path d="M37.7109 178.397H42.8284V189.179C42.8284 190.68 43.0131 191.646 43.4088 192.104C43.8045 192.536 44.5958 192.765 45.8093 192.765H46.7588C47.9458 192.765 48.7371 192.536 49.1328 192.104C49.5285 191.672 49.7132 190.68 49.7132 189.179V178.397H54.8307V189.561C54.8307 191.214 54.7252 192.434 54.5143 193.222C54.3034 193.985 53.9604 194.672 53.4328 195.232C52.8524 195.918 52.0872 196.376 51.1904 196.681C50.2936 196.961 49.0801 197.113 47.5502 197.113H45.018C43.4881 197.113 42.2745 196.961 41.3778 196.681C40.481 196.376 39.7424 195.918 39.1354 195.232C38.6343 194.647 38.2652 193.96 38.0539 193.172C37.8164 192.384 37.7109 191.188 37.7109 189.561V178.397Z" fill="white"/>
<path d="M66.7695 196.885L71.8342 187.298L67.4816 178.397H73.2587L75.9756 184.806L78.7191 178.397H84.5224L80.0115 187.298L84.9442 196.885H79.062L75.8963 189.841L72.599 196.885H66.7695Z" fill="white"/>
<path d="M108.225 196.885V178.397H111.706L118.275 194.876L124.79 178.397H128.299V196.885H126.188V180.126L119.567 196.885H116.956L110.335 180.126V196.885H108.225Z" fill="white"/>
<path d="M141.826 178.397H143.963V190.527C143.963 191.722 144.042 192.561 144.174 193.019C144.306 193.502 144.517 193.884 144.86 194.163C145.203 194.469 145.598 194.672 146.073 194.799C146.574 194.926 147.392 194.977 148.553 194.977H150.557C151.745 194.977 152.562 194.926 153.037 194.799C153.538 194.672 153.934 194.469 154.277 194.163C154.593 193.884 154.831 193.502 154.963 193.045C155.095 192.561 155.147 191.722 155.147 190.527V178.397H157.284V190.781C157.284 193.146 156.809 194.774 155.833 195.715C154.883 196.656 153.169 197.113 150.716 197.113H148.394C145.941 197.113 144.253 196.656 143.277 195.715C142.301 194.774 141.826 193.146 141.826 190.781V178.397Z" fill="white"/>
<path d="M171.076 196.885V178.397H174.347L184.74 194.902V178.397H186.85V196.885H183.58L173.187 180.355V196.885H171.076Z" fill="white"/>
<path d="M200.848 196.885V178.397H210.106C212.507 178.397 214.195 178.855 215.171 179.771C216.147 180.686 216.622 182.288 216.622 184.577V190.68C216.622 192.969 216.147 194.571 215.171 195.486C214.195 196.427 212.507 196.885 210.106 196.885H200.848ZM202.958 195.054H209.764C211.61 195.054 212.85 194.749 213.457 194.139C214.09 193.554 214.406 192.384 214.406 190.705V184.729C214.406 182.924 214.09 181.729 213.483 181.144C212.85 180.534 211.61 180.228 209.764 180.228H202.958V195.054Z" fill="white"/>
<path d="M229.965 196.885V178.397H232.101V196.885H229.965Z" fill="white"/>
<path fill-rule="evenodd" clip-rule="evenodd" d="M11.4316 205.573H232.11V211.537H11.4316V205.573Z" fill="white"/>
<path fill-rule="evenodd" clip-rule="evenodd" d="M11.4316 216.404H232.11V220.877H11.4316V216.404Z" fill="white"/>
</svg>
